<svg xmlns="http://www.w3.org/2000/svg" xmlns:xlink="http://www.w3.org/1999/xlink" version="1.1" width="800"
height="800" viewBox="0 0 800 800">
    <g transform="scale(10) translate(20, 1)">
        <defs id="SvgjsDefs1071"><linearGradient id="SvgjsLinearGradient1076"><stop id="SvgjsStop1077" stop-color="#006838" offset="0"></stop><stop id="SvgjsStop1078" stop-color="#96cf24" offset="1"></stop></linearGradient></defs><g id="SvgjsG1072" featureKey="nRdZyp-0" transform="matrix(1.168145710084366,0,0,1.168145710084366,-37.06233963004881,-21.374449859560983)" fill="url(#SvgjsLinearGradient1076)"><defs xmlns="http://www.w3.org/2000/svg"></defs><title xmlns="http://www.w3.org/2000/svg">2</title><path xmlns="http://www.w3.org/2000/svg" class="cls-1" d="M49.46,36.77h0a1.3,1.3,0,0,0,1.3-1.29l0-9.32a1.3,1.3,0,0,0-1.29-1.31h0a1.3,1.3,0,0,0-1.3,1.29l0,9.32A1.3,1.3,0,0,0,49.46,36.77Z" style="fill: url(#SvgjsLinearGradient1076);"></path><path xmlns="http://www.w3.org/2000/svg" class="cls-1" d="M66,38.56A1.3,1.3,0,0,0,64.81,40c.22,2.16,0,3.58-.75,4.11-1.36,1-5-.45-8-1.63a21.54,21.54,0,0,0-6.22-1.87c-1.52-.78-4-.47-7-.08s-7.3.95-8.27-.47c-.4-.58-.7-2.21,1.69-6.63A1.3,1.3,0,1,0,34,32.16c-2.39,4.43-2.88,7.39-1.54,9.34,1.09,1.59,3.14,2,5.48,2a42.23,42.23,0,0,0,5.27-.47c1.85-.24,4.59-.6,5.39-.24.72,1.1,4.9,8.61-.39,27.65a1.3,1.3,0,0,0,.9,1.6,1.32,1.32,0,0,0,.35,0,1.3,1.3,0,0,0,1.25-1c4.25-15.31,2.65-23.7,1.17-27.53,1,.33,2.12.78,3.22,1.22C57.77,45.94,60.49,47,62.76,47a4.64,4.64,0,0,0,2.87-.86c1.52-1.14,2.1-3.25,1.77-6.45A1.3,1.3,0,0,0,66,38.56Z" style="fill: url(#SvgjsLinearGradient1076);"></path><path xmlns="http://www.w3.org/2000/svg" class="cls-1" d="M62.81,75.47H38.56a1.3,1.3,0,0,0-1.3,1.3v7.49a1.3,1.3,0,0,0,1.3,1.3H62.81a1.3,1.3,0,0,0,1.3-1.3V76.77A1.3,1.3,0,0,0,62.81,75.47ZM61.51,83H39.86V78.07H61.51Z" style="fill: url(#SvgjsLinearGradient1076);"></path><path xmlns="http://www.w3.org/2000/svg" class="cls-1" d="M68.12,33.38,60.65,19a1.3,1.3,0,1,0-2.31,1.2l7.47,14.38a1.3,1.3,0,1,0,2.31-1.2Z" style="fill: url(#SvgjsLinearGradient1076);"></path></g>
    </g>
</svg>
