<svg xmlns="http://www.w3.org/2000/svg" xmlns:xlink="http://www.w3.org/1999/xlink" version="1.1" width="3162.0233155502865" height="798.5489487016258" viewBox="0 0 3162.0233155502865 798.5489487016258">
    <g transform="scale(8.5) translate(1, 10)">
        <defs id="SvgjsDefs1071"><linearGradient id="SvgjsLinearGradient1076"><stop id="SvgjsStop1077" stop-color="#006838" offset="0"/><stop id="SvgjsStop1078" stop-color="#96cf24" offset="1"/></linearGradient></defs><g id="SvgjsG1072" featureKey="nRdZyp-0" transform="matrix(1.168145710084366,0,0,1.168145710084366,-37.06233963004881,-21.374449859560983)" fill="#202020"><defs xmlns="http://www.w3.org/2000/svg"/><title xmlns="http://www.w3.org/2000/svg">2</title><path xmlns="http://www.w3.org/2000/svg" class="cls-1" d="M49.46,36.77h0a1.3,1.3,0,0,0,1.3-1.29l0-9.32a1.3,1.3,0,0,0-1.29-1.31h0a1.3,1.3,0,0,0-1.3,1.29l0,9.32A1.3,1.3,0,0,0,49.46,36.77Z" style="fill: url(#SvgjsLinearGradient1076);"/><path xmlns="http://www.w3.org/2000/svg" class="cls-1" d="M66,38.56A1.3,1.3,0,0,0,64.81,40c.22,2.16,0,3.58-.75,4.11-1.36,1-5-.45-8-1.63a21.54,21.54,0,0,0-6.22-1.87c-1.52-.78-4-.47-7-.08s-7.3.95-8.27-.47c-.4-.58-.7-2.21,1.69-6.63A1.3,1.3,0,1,0,34,32.16c-2.39,4.43-2.88,7.39-1.54,9.34,1.09,1.59,3.14,2,5.48,2a42.23,42.23,0,0,0,5.27-.47c1.85-.24,4.59-.6,5.39-.24.72,1.1,4.9,8.61-.39,27.65a1.3,1.3,0,0,0,.9,1.6,1.32,1.32,0,0,0,.35,0,1.3,1.3,0,0,0,1.25-1c4.25-15.31,2.65-23.7,1.17-27.53,1,.33,2.12.78,3.22,1.22C57.77,45.94,60.49,47,62.76,47a4.64,4.64,0,0,0,2.87-.86c1.52-1.14,2.1-3.25,1.77-6.45A1.3,1.3,0,0,0,66,38.56Z" style="fill: url(#SvgjsLinearGradient1076);"/><path xmlns="http://www.w3.org/2000/svg" class="cls-1" d="M62.81,75.47H38.56a1.3,1.3,0,0,0-1.3,1.3v7.49a1.3,1.3,0,0,0,1.3,1.3H62.81a1.3,1.3,0,0,0,1.3-1.3V76.77A1.3,1.3,0,0,0,62.81,75.47ZM61.51,83H39.86V78.07H61.51Z" style="fill: url(#SvgjsLinearGradient1076);"/><path xmlns="http://www.w3.org/2000/svg" class="cls-1" d="M68.12,33.38,60.65,19a1.3,1.3,0,1,0-2.31,1.2l7.47,14.38a1.3,1.3,0,1,0,2.31-1.2Z" style="fill: url(#SvgjsLinearGradient1076);"/></g><g id="SvgjsG1073" featureKey="Q4qmbg-0" transform="matrix(2.6722468525413823,0,0,2.6722468525413823,60.80875839642109,4.966520158978302)" fill="#202020"><path d="M5.72 18.4 c2.12 0 3.1 -1.46 3.1 -3.4 c0 -2.04 -1.04 -3.4 -3.1 -3.4 c-2.12 0 -3.1 1.46 -3.1 3.4 c0 2.02 1.06 3.4 3.1 3.4 z M5.72 20.1 c-3 0 -4.9 -2.24 -4.9 -5.1 c0 -2.98 1.96 -5.1 4.9 -5.1 c3.08 0 4.9 2.2 4.9 5.1 c0 2.98 -1.94 5.1 -4.9 5.1 z M14.125270833333332 15 l0 5 l-1.8 0 l0 -4.98 c0 -2.94 1.82 -5.12 4.78 -5.12 c0.2 0 0.38 0 0.52 0.02 s0.3 0.06 0.44 0.08 l0 1.74 c-0.18 -0.02 -0.3 -0.06 -0.4 -0.08 s-0.24 -0.02 -0.42 -0.02 c-2.22 0 -3.12 1.34 -3.12 3.36 z M26.67054166666667 17.78 l0 1.92 c-0.96 0.32 -2 0.44 -3.02 0.44 c-3.1 0 -5.02 -2.16 -5.02 -5.12 c0 -3.08 2 -5.12 5.02 -5.12 c1.02 0 2.06 0.12 3.02 0.44 l0 1.92 c-0.88 -0.46 -1.98 -0.58 -2.96 -0.58 c-2.3 0 -3.28 1.18 -3.28 3.32 c0 2.24 1.12 3.36 3.28 3.36 c0.88 0 2.18 -0.16 2.96 -0.58 z M30.175812500000003 15 l0 5 l-1.8 0 l0 -14 l1.8 0 l0 5.56 c0.76 -1.12 1.84 -1.66 3.2 -1.66 c2.9 0 4.4 2.48 4.4 5.1 l0 5 l-1.8 0 l0 -5 c0 -1.88 -0.72 -3.4 -2.8 -3.4 c-2.06 0 -3 1.48 -3 3.4 z M41.22108333333334 13.98 c0.86 0.44 2.08 0.68 3.04 0.68 c0.98 0 2.18 -0.28 2.18 -1.48 c0 -1.24 -1.16 -1.54 -2.18 -1.54 c-1.6 0 -2.72 0.72 -3.04 2.34 z M47.66108333333334 17.96 l0 1.72 c-1.02 0.3 -2.1 0.44 -3.18 0.44 c-3.16 0 -5.16 -2 -5.16 -5.08 c0 -2.98 1.92 -5.14 4.88 -5.14 c2 0 4.06 1.08 4.06 3.28 c0 2.24 -2.1 3.22 -4.04 3.22 c-1.04 0 -2.14 -0.3 -3.08 -0.74 c0.2 2.06 1.6 2.72 3.44 2.72 c0.52 0 1.08 -0.04 1.6 -0.12 c0.5 -0.04 1 -0.14 1.48 -0.3 z M49.56635416666667 19.68 l0 -1.7 c0.58 0.16 1.18 0.26 1.78 0.3 c0.64 0.08 1.32 0.12 1.98 0.12 c0.86 0 2.56 -0.02 2.56 -1.26 c0 -0.38 -0.16 -0.6 -0.5 -0.76 c-0.22 -0.1 -0.5 -0.18 -0.88 -0.28 s-0.88 -0.2 -1.5 -0.32 c-0.28 -0.06 -0.6 -0.12 -0.98 -0.2 c-0.8 -0.16 -1.54 -0.56 -2 -1.26 c-0.26 -0.34 -0.38 -0.82 -0.38 -1.4 c0 -2.32 2.12 -3.02 4.04 -3.02 c1.18 0 2.3 0.18 3.44 0.44 l0 1.72 c-0.18 -0.06 -0.42 -0.1 -0.7 -0.16 c-0.92 -0.2 -1.88 -0.26 -2.82 -0.26 c-0.88 0 -2.22 0.08 -2.22 1.26 c0 0.18 0.04 0.32 0.12 0.44 c0.16 0.3 0.9 0.52 1.2 0.6 c0.34 0.1 0.76 0.2 1.3 0.3 c0.48 0.1 0.94 0.22 1.38 0.32 c1.36 0.32 2.26 1.02 2.26 2.46 c0 2.46 -2.42 3.1 -4.42 3.1 c-1.24 0 -2.46 -0.16 -3.66 -0.44 z M64.29162500000001 10.34 l0 1.7 l-3.4 0 l0 2.96 c0 1.86 0.82 3.4 2.86 3.4 c0.22 0 0.38 -0.02 0.52 -0.04 s0.26 -0.04 0.4 -0.06 l0 1.7 c-0.18 0.02 -0.32 0.06 -0.42 0.08 c-0.12 0.02 -0.3 0.02 -0.54 0.02 c-2.94 0 -4.62 -2.38 -4.62 -5.1 l0 -7.4 l1.8 0 l0 2.74 l3.4 0 z M67.93689583333334 15 l0 5 l-1.8 0 l0 -4.98 c0 -2.94 1.82 -5.12 4.78 -5.12 c0.2 0 0.38 0 0.52 0.02 s0.3 0.06 0.44 0.08 l0 1.74 c-0.18 -0.02 -0.3 -0.06 -0.4 -0.08 s-0.24 -0.02 -0.42 -0.02 c-2.22 0 -3.12 1.34 -3.12 3.36 z M80.68216666666666 15 c-0.08 -2 -0.9 -3.4 -3.06 -3.4 c-2.18 0 -3.14 1.42 -3.14 3.4 c0 2.08 1.04 3.4 3.12 3.4 c2.18 0 3.08 -1.34 3.08 -3.4 z M83.28216666666667 20 l-1.8 0 c-0.26 -0.58 -0.44 -1.16 -0.54 -1.74 c-0.8 1.24 -2.06 1.84 -3.52 1.84 c-2.92 0 -4.74 -2.38 -4.74 -5.12 c0 -3 2 -5.08 4.94 -5.08 c3.1 0 4.78 2.22 4.86 5.1 c0.02 0.26 0.02 0.56 0.02 0.92 c0 1.4 0.22 2.8 0.78 4.08 z M89.5674375 10.34 l0 1.7 l-3.4 0 l0 2.96 c0 1.86 0.82 3.4 2.86 3.4 c0.22 0 0.38 -0.02 0.52 -0.04 s0.26 -0.04 0.4 -0.06 l0 1.7 c-0.18 0.02 -0.32 0.06 -0.42 0.08 c-0.12 0.02 -0.3 0.02 -0.54 0.02 c-2.94 0 -4.62 -2.38 -4.62 -5.1 l0 -7.4 l1.8 0 l0 2.74 l3.4 0 z M91.51270833333334 10 l1.8 0 l0 10 l-1.8 0 l0 -10 z M92.41270833333334 8.66 c-0.78 0 -1.34 -0.56 -1.34 -1.34 c0 -0.8 0.56 -1.32 1.34 -1.32 c0.8 0 1.32 0.52 1.32 1.32 c0 0.78 -0.52 1.34 -1.32 1.34 z M99.81797916666667 18.4 c2.12 0 3.1 -1.46 3.1 -3.4 c0 -2.04 -1.04 -3.4 -3.1 -3.4 c-2.12 0 -3.1 1.46 -3.1 3.4 c0 2.02 1.06 3.4 3.1 3.4 z M99.81797916666667 20.1 c-3 0 -4.9 -2.24 -4.9 -5.1 c0 -2.98 1.96 -5.1 4.9 -5.1 c3.08 0 4.9 2.2 4.9 5.1 c0 2.98 -1.94 5.1 -4.9 5.1 z M115.82325 15 l0 5 l-1.8 0 l0 -5 c0 -1.9 -0.82 -3.4 -2.9 -3.4 c-2.06 0 -2.9 1.5 -2.9 3.4 l0 5 l-1.8 0 l0 -5 c0 -2.88 1.78 -5.1 4.7 -5.1 c3 0 4.7 2.3 4.7 5.1 z"/></g>
    </g>
</svg>
